<?xml version="1.0" standalone="no"?>
<!DOCTYPE svg PUBLIC "-//W3C//DTD SVG 20010904//EN"
 "http://www.w3.org/TR/2001/REC-SVG-20010904/DTD/svg10.dtd">
<svg version="1.0" xmlns="http://www.w3.org/2000/svg"
 width="512.000000pt" height="512.000000pt" viewBox="0 0 512.000000 512.000000"
 preserveAspectRatio="xMidYMid meet">

<g transform="translate(0.000000,512.000000) scale(0.100000,-0.100000)"
fill="#000000" stroke="none">
<path d="M1185 4899 c-206 -30 -390 -166 -480 -354 -69 -146 -65 0 -65 -2188
l0 -1973 26 -53 c45 -89 144 -135 237 -110 24 6 384 225 850 516 l808 505 808
-506 c531 -331 824 -509 853 -516 90 -23 189 25 232 111 l26 53 0 1968 c0
2183 4 2051 -66 2193 -81 166 -226 287 -412 342 -53 16 -162 18 -1407 19 -742
1 -1377 -2 -1410 -7z m2733 -435 c49 -20 90 -60 113 -109 18 -38 19 -108 19
-1787 0 -962 -2 -1748 -5 -1748 -3 0 -310 191 -683 423 -372 233 -692 432
-711 441 -40 21 -137 24 -172 6 -13 -7 -333 -206 -710 -441 -378 -236 -690
-429 -693 -429 -3 0 -6 788 -6 1750 0 1703 1 1752 19 1788 11 20 32 49 48 64
64 61 -25 57 1421 58 1174 0 1327 -2 1360 -16z"/>
</g>
</svg>
