<?xml version="1.0" standalone="no"?>
<!DOCTYPE svg PUBLIC "-//W3C//DTD SVG 20010904//EN"
 "http://www.w3.org/TR/2001/REC-SVG-20010904/DTD/svg10.dtd">
<svg version="1.0" xmlns="http://www.w3.org/2000/svg"
 width="22" height="22" viewBox="0 0 580.000000 650.000000"
 preserveAspectRatio="xMidYMid meet">

<g transform="translate(0.000000,580.000000) scale(0.100000,-0.100000)"
fill="#000000" stroke="none">
<path d="M4785 5018 c-328 -98 -304 -91 -820 -243 -381 -113 -458 -135 -650
-191 -66 -20 -241 -72 -390 -116 -400 -118 -532 -157 -730 -214 -66 -19 -140
-41 -165 -49 -25 -7 -79 -23 -120 -35 -41 -12 -102 -30 -135 -40 -33 -10 -132
-40 -220 -65 -88 -26 -248 -73 -355 -105 -107 -32 -267 -79 -355 -105 -88 -25
-209 -62 -270 -80 -60 -18 -153 -45 -205 -60 -119 -34 -173 -61 -236 -118
-142 -128 -175 -355 -77 -525 16 -28 179 -199 410 -428 l383 -381 2 -704 3
-704 705 -3 705 -2 395 -393 c467 -465 449 -452 635 -452 104 0 114 2 175 32
119 58 184 133 228 259 12 32 87 284 167 559 81 275 198 673 260 885 63 212
159 540 215 730 295 1005 688 2339 739 2513 33 107 36 127 22 126 -9 -1 -151
-42 -316 -91z m-2116 -2047 l-1384 -1379 -3 421 -2 422 -426 426 -426 426 179
53 c98 29 237 70 308 91 72 21 254 74 405 119 151 45 313 93 360 106 158 47
244 72 590 174 190 56 365 108 390 115 25 7 90 26 145 43 55 16 188 55 295 87
171 50 265 78 475 141 234 70 452 133 464 133 7 1 -609 -620 -1370 -1378z
m1580 704 c-59 -204 -115 -392 -123 -420 -17 -56 -325 -1103 -381 -1295 -20
-69 -81 -276 -135 -460 -54 -184 -147 -499 -205 -700 -59 -201 -109 -367 -111
-370 -3 -2 -197 188 -432 423 l-427 427 -425 0 -425 0 1385 1385 c761 761
1385 1383 1386 1382 1 -1 -47 -169 -107 -372z"/>
</g>
</svg>
