<?xml version="1.0" standalone="no"?>
<!DOCTYPE svg PUBLIC "-//W3C//DTD SVG 20010904//EN"
 "http://www.w3.org/TR/2001/REC-SVG-20010904/DTD/svg10.dtd">
<svg version="1.0" xmlns="http://www.w3.org/2000/svg"
 width="512.000000pt" height="512.000000pt" viewBox="0 0 512.000000 512.000000"
 preserveAspectRatio="xMidYMid meet">

<g transform="translate(0.000000,512.000000) scale(0.100000,-0.100000)"
fill="#000000" stroke="none">
<path d="M2370 5113 c-371 -35 -653 -114 -961 -269 -406 -203 -782 -548 -1029
-944 -179 -286 -309 -655 -362 -1025 -17 -118 -17 -512 0 -630 42 -295 120
-553 242 -800 129 -263 265 -457 467 -666 210 -216 428 -375 698 -509 196 -97
315 -141 510 -190 500 -126 1002 -102 1490 71 149 53 407 182 540 271 365 243
667 578 866 963 181 348 271 694 286 1090 15 426 -73 832 -263 1214 -124 250
-263 447 -458 648 -216 224 -428 378 -711 518 -296 146 -572 225 -900 255
-102 9 -333 11 -415 3z m476 -308 c757 -100 1411 -568 1745 -1250 156 -319
229 -636 229 -995 0 -359 -73 -676 -229 -995 -334 -682 -988 -1150 -1745
-1250 -146 -19 -426 -19 -566 -1 -257 35 -488 104 -715 215 -682 334 -1150
988 -1250 1745 -30 232 -16 548 36 780 33 150 108 361 181 508 334 674 984
1141 1733 1242 140 19 437 19 581 1z"/>
<path d="M3800 3981 c-57 -19 -1707 -914 -1730 -939 -14 -15 -229 -407 -479
-872 -416 -773 -455 -849 -455 -893 0 -80 61 -141 141 -141 44 0 119 38 893
453 502 270 858 466 876 485 18 18 218 379 484 876 415 772 454 849 454 893 0
93 -97 166 -184 138z m-606 -1032 c-152 -283 -279 -517 -283 -521 -4 -4 -116
102 -250 236 l-243 243 523 281 c288 155 525 280 526 278 2 -2 -121 -234 -273
-517z m-502 -740 c-12 -12 -1035 -560 -1038 -556 -2 2 123 238 278 526 l281
523 243 -243 c134 -134 240 -247 236 -250z"/>
</g>
</svg>
