<?xml version="1.0"?><svg version="1.1" id="圖層_1" xmlns="http://www.w3.org/2000/svg" x="0" y="0" viewBox="0 0 100 100" xml:space="preserve"><path id="XMLID_21_" d="M30.9 80.2c0 1.3 1.5 1.9 2.5 1.1l32.9-30.2c.3-.3.5-.7.5-1.1 0-.4-.2-.8-.5-1.1l-33-30.2c-.9-.9-2.5-.2-2.5 1.1v18.1H12.1c-1.1 0-2.1.9-2.1 2.1v20.1c0 1.1.9 2.1 2.1 2.1h18.8v18z"/><g><path d="M76 82.3H57.1c-2.7 0-4.9-2.2-4.9-4.9s2.2-4.9 4.9-4.9H76c2.3 0 4.3-1.9 4.3-4.3V31.6c0-2.3-1.9-4.3-4.3-4.3H57.1c-2.7 0-4.9-2.2-4.9-4.9s2.2-4.9 4.9-4.9H76c7.7 0 14 6.3 14 14v36.7c0 7.9-6.3 14.1-14 14.1z" fill="#353035"/></g><metadata xmlns:d="https://loading.io/stock/">
<d:name>login</d:name>
<d:tags>enter,sign in,sign up,join,subscribe,arrow,login,web application</d:tags>
<d:license>by</d:license>
<d:slug>3uadpc</d:slug>
</metadata></svg>